<?xml version="1.0" encoding="utf-8"?>
<!-- Generator: Adobe Illustrator 29.8.2, SVG Export Plug-In . SVG Version: 9.03 Build 0)  -->
<svg version="1.1" xmlns="http://www.w3.org/2000/svg" xmlns:xlink="http://www.w3.org/1999/xlink" x="0px" y="0px"
	 viewBox="0 0 141.73 141.73" style="enable-background:new 0 0 141.73 141.73;" xml:space="preserve">
<style type="text/css">
	.st0{fill:#FFFFFF;}
	
		.st1{clip-path:url(#SVGID_00000081632658885752739240000016980450774802701205_);stroke:#000000;stroke-width:0.25;stroke-miterlimit:10;}
	
		.st2{clip-path:url(#SVGID_00000145764015604616694300000003885441618087141299_);stroke:#000000;stroke-width:0.25;stroke-miterlimit:10;}
	.st3{clip-path:url(#SVGID_00000031176805177787344270000012307018499479859391_);fill:#FFFFFF;}
	.st4{clip-path:url(#SVGID_00000103235941843067329120000012194739962663851934_);fill:#FFFFFF;}
	.st5{stroke:#000000;stroke-miterlimit:10;}
	.st6{fill:none;stroke:#000000;stroke-miterlimit:10;}
	.st7{fill:none;stroke:#000000;stroke-width:0.5;stroke-miterlimit:10;}
</style>
<g id="circle">
	<g>
		<path class="st0" d="M71.05,139.23c-37.66,0-68.3-30.64-68.3-68.3s30.64-68.3,68.3-68.3s68.3,30.64,68.3,68.3
			S108.71,139.23,71.05,139.23z"/>
		<path class="st0" d="M71.05,5.14c36.28,0,65.8,29.52,65.8,65.8s-29.52,65.8-65.8,65.8s-65.8-29.52-65.8-65.8
			S34.77,5.14,71.05,5.14 M71.05,0.14c-39.1,0-70.8,31.7-70.8,70.8s31.7,70.8,70.8,70.8s70.8-31.7,70.8-70.8S110.15,0.14,71.05,0.14
			L71.05,0.14z"/>
	</g>
</g>
<g id="nozzle">
	<g>
		<g id="_x3C_Mirror_Repeat_x3E__00000052084604289529673210000003651533980794867109_">
			<g>
				<defs>
					<rect id="SVGID_1_" x="54.68" width="17.14" height="59.75"/>
				</defs>
				<clipPath id="SVGID_00000029012386151639387360000016944507363687369906_">
					<use xlink:href="#SVGID_1_"  style="overflow:visible;"/>
				</clipPath>
				
					<path style="clip-path:url(#SVGID_00000029012386151639387360000016944507363687369906_);stroke:#000000;stroke-width:0.25;stroke-miterlimit:10;" d="
					M60.68,2.01l-0.5,22.45c0,0.42-0.27,0.81-0.69,0.91c-0.59,0.14-1.57,0.69-2.96,2.43c-1.72,2.14-1.72,2.14-1.72,2.14l0,12.34
					l17.6,17.15L71.67,1.13L60.68,2.01z"/>
			</g>
		</g>
		<g id="_x3C_Mirror_Repeat_x3E__00000037672365846880046940000006819349100540169857_">
			<g>
				<defs>
					<rect id="SVGID_00000042696303748350745470000010625427667854162863_" x="71.82" width="17.14" height="59.75"/>
				</defs>
				<clipPath id="SVGID_00000150805543145074798530000010947715917545300098_">
					<use xlink:href="#SVGID_00000042696303748350745470000010625427667854162863_"  style="overflow:visible;"/>
				</clipPath>
				
					<path style="clip-path:url(#SVGID_00000150805543145074798530000010947715917545300098_);stroke:#000000;stroke-width:0.25;stroke-miterlimit:10;" d="
					M83.45,2.01v22.45c0,0.42,0.27,0.81,0.69,0.91c0.59,0.14,1.57,0.69,2.96,2.43c1.72,2.14,1.72,2.14,1.72,2.14l0,12.34
					l-17.6,17.15l0.45-58.29L83.45,2.01z"/>
			</g>
		</g>
	</g>
	<polygon class="st0" points="60.68,2.52 60.68,24.47 64.09,24.47 64.09,2.01 	"/>
	<rect x="66.08" y="2.01" class="st0" width="1.62" height="22.46"/>
	<polygon class="st0" points="58.38,26.79 56.88,28.79 61.79,28.79 63.25,26.79 	"/>
	<rect x="55.27" y="30.2" class="st0" width="3.72" height="11.82"/>
	<rect x="61.28" y="30.2" class="st0" width="17.43" height="11.82"/>
	<rect x="85.12" y="30.2" class="st0" width="2.4" height="11.82"/>
	<polygon class="st0" points="62.39,43.22 56.37,43.22 67.38,53.88 68.91,53.88 	"/>
	<g>
		<g id="_x3C_Mirror_Repeat_x3E__00000103245742798054403620000001224151019854897033_">
			<g>
				<defs>
					<rect id="SVGID_00000143602979919187407530000000873792429407460767_" x="68.54" y="55.03" width="3.28" height="3.31"/>
				</defs>
				<clipPath id="SVGID_00000101790612672967171380000013932070495713388937_">
					<use xlink:href="#SVGID_00000143602979919187407530000000873792429407460767_"  style="overflow:visible;"/>
				</clipPath>
				<polygon style="clip-path:url(#SVGID_00000101790612672967171380000013932070495713388937_);fill:#FFFFFF;" points="
					68.54,55.03 71.82,58.35 71.82,55.03 				"/>
			</g>
		</g>
		<g id="_x3C_Mirror_Repeat_x3E__00000170979072034001336440000009620891364539330487_">
			<g>
				<defs>
					<rect id="SVGID_00000051351267748521504680000009373307199158359699_" x="71.82" y="55.03" width="3.28" height="3.31"/>
				</defs>
				<clipPath id="SVGID_00000146464188063833018500000008284752471783749537_">
					<use xlink:href="#SVGID_00000051351267748521504680000009373307199158359699_"  style="overflow:visible;"/>
				</clipPath>
				<polygon style="clip-path:url(#SVGID_00000146464188063833018500000008284752471783749537_);fill:#FFFFFF;" points="75.1,55.03 
					71.82,58.35 71.82,55.03 				"/>
			</g>
		</g>
	</g>
</g>
<g id="circle_copy">
	<g>
		<path d="M71.05,5.14c36.28,0,65.8,29.52,65.8,65.8s-29.52,65.8-65.8,65.8s-65.8-29.52-65.8-65.8S34.77,5.14,71.05,5.14
			 M71.05,0.14c-39.1,0-70.8,31.7-70.8,70.8s31.7,70.8,70.8,70.8s70.8-31.7,70.8-70.8S110.15,0.14,71.05,0.14L71.05,0.14z"/>
	</g>
</g>
<g id="Bars">
	<rect x="71.76" y="59.75" class="st5" width="8.57" height="53.41"/>
	<line class="st6" x1="71.76" y1="58.46" x2="71.76" y2="68.57"/>
	<rect x="58.05" y="79.69" class="st5" width="8.57" height="33.47"/>
	<rect x="85.43" y="75.71" class="st5" width="8.57" height="37.58"/>
	<rect x="44.33" y="75.71" class="st5" width="8.57" height="37.45"/>
	<rect x="30.62" y="90.81" class="st5" width="8.57" height="22.35"/>
	<rect x="99.09" y="68.47" class="st5" width="8.57" height="44.82"/>
</g>
<g id="grid">
	<g id="Set_1">
		<rect x="111.17" y="53.33" class="st7" width="12.02" height="10.02"/>
		<rect x="111.17" y="63.35" class="st7" width="12.02" height="10.02"/>
		<rect x="111.17" y="73.37" class="st7" width="12.02" height="10.02"/>
		<rect x="111.17" y="83.38" class="st7" width="12.02" height="10.02"/>
		<rect x="111.17" y="93.4" class="st7" width="12.02" height="10.02"/>
		<rect x="99.15" y="53.33" class="st7" width="12.02" height="10.02"/>
		<rect x="99.15" y="63.35" class="st7" width="12.02" height="10.02"/>
		<rect x="99.15" y="73.37" class="st7" width="12.02" height="10.02"/>
		<rect x="99.15" y="83.38" class="st7" width="12.02" height="10.02"/>
		<rect x="99.15" y="93.4" class="st7" width="12.02" height="10.02"/>
		<rect x="87.13" y="53.33" class="st7" width="12.02" height="10.02"/>
		<rect x="87.13" y="63.35" class="st7" width="12.02" height="10.02"/>
		<rect x="87.13" y="73.37" class="st7" width="12.02" height="10.02"/>
		<rect x="87.13" y="83.38" class="st7" width="12.02" height="10.02"/>
		<rect x="87.13" y="93.4" class="st7" width="12.02" height="10.02"/>
	</g>
	<g id="Set_2">
		<rect x="75.1" y="63.35" class="st7" width="12.02" height="10.02"/>
		<rect x="75.1" y="73.37" class="st7" width="12.02" height="10.02"/>
		<rect x="75.1" y="83.38" class="st7" width="12.02" height="10.02"/>
		<rect x="75.1" y="93.4" class="st7" width="12.02" height="10.02"/>
		<rect x="75.1" y="103.42" class="st7" width="12.02" height="10.02"/>
		<rect x="63.08" y="63.35" class="st7" width="12.02" height="10.02"/>
		<rect x="63.08" y="73.37" class="st7" width="12.02" height="10.02"/>
		<rect x="63.08" y="83.38" class="st7" width="12.02" height="10.02"/>
		<rect x="63.08" y="93.4" class="st7" width="12.02" height="10.02"/>
		<rect x="63.08" y="103.42" class="st7" width="12.02" height="10.02"/>
		<rect x="51.06" y="63.35" class="st7" width="12.02" height="10.02"/>
		<rect x="51.06" y="73.37" class="st7" width="12.02" height="10.02"/>
		<rect x="51.06" y="83.38" class="st7" width="12.02" height="10.02"/>
		<rect x="51.06" y="93.4" class="st7" width="12.02" height="10.02"/>
		<rect x="51.06" y="103.42" class="st7" width="12.02" height="10.02"/>
	</g>
	<g id="Set_3">
		<rect x="39.04" y="53.33" class="st7" width="12.02" height="10.02"/>
		<rect x="39.04" y="63.35" class="st7" width="12.02" height="10.02"/>
		<rect x="39.04" y="73.37" class="st7" width="12.02" height="10.02"/>
		<rect x="39.04" y="83.38" class="st7" width="12.02" height="10.02"/>
		<rect x="39.04" y="93.4" class="st7" width="12.02" height="10.02"/>
		<rect x="27.02" y="53.33" class="st7" width="12.02" height="10.02"/>
		<rect x="27.02" y="63.35" class="st7" width="12.02" height="10.02"/>
		<rect x="27.02" y="73.37" class="st7" width="12.02" height="10.02"/>
		<rect x="27.02" y="83.38" class="st7" width="12.02" height="10.02"/>
		<rect x="27.02" y="93.4" class="st7" width="12.02" height="10.02"/>
		<rect x="15" y="53.33" class="st7" width="12.02" height="10.02"/>
		<rect x="15" y="63.35" class="st7" width="12.02" height="10.02"/>
		<rect x="15" y="73.37" class="st7" width="12.02" height="10.02"/>
		<rect x="15" y="83.38" class="st7" width="12.02" height="10.02"/>
		<rect x="15" y="93.4" class="st7" width="12.02" height="10.02"/>
	</g>
</g>
</svg>
