<?xml version="1.0" encoding="utf-8"?>
<!-- Generator: Adobe Illustrator 29.8.2, SVG Export Plug-In . SVG Version: 9.03 Build 0)  -->
<svg version="1.1" xmlns="http://www.w3.org/2000/svg" xmlns:xlink="http://www.w3.org/1999/xlink" x="0px" y="0px"
	 viewBox="0 0 141.73 141.73" style="enable-background:new 0 0 141.73 141.73;" xml:space="preserve">
<style type="text/css">
	
		.st0{clip-path:url(#SVGID_00000102528880529187023970000009550161022252553104_);stroke:#000000;stroke-width:0.25;stroke-miterlimit:10;}
	
		.st1{clip-path:url(#SVGID_00000178207086720171158320000017168221715272548264_);stroke:#000000;stroke-width:0.25;stroke-miterlimit:10;}
	.st2{fill:#FFFFFF;}
	.st3{clip-path:url(#SVGID_00000063628988887701928850000015971175992386761402_);fill:#FFFFFF;}
	.st4{clip-path:url(#SVGID_00000141457960006311958410000017701606391538108070_);fill:#FFFFFF;}
	.st5{stroke:#000000;stroke-miterlimit:10;}
	.st6{fill:none;stroke:#000000;stroke-miterlimit:10;}
	.st7{fill:none;stroke:#000000;stroke-width:0.5;stroke-miterlimit:10;}
</style>
<g id="nozzle">
	<g>
		<g id="_x3C_Mirror_Repeat_x3E__00000052084604289529673210000003651533980794867109_">
			<g>
				<defs>
					<rect id="SVGID_1_" x="54.68" width="17.14" height="59.75"/>
				</defs>
				<clipPath id="SVGID_00000155831378973276636260000015691838984026655875_">
					<use xlink:href="#SVGID_1_"  style="overflow:visible;"/>
				</clipPath>
				
					<path style="clip-path:url(#SVGID_00000155831378973276636260000015691838984026655875_);stroke:#000000;stroke-width:0.25;stroke-miterlimit:10;" d="
					M60.68,2.01l-0.5,22.45c0,0.42-0.27,0.81-0.69,0.91c-0.59,0.14-1.57,0.69-2.96,2.43c-1.72,2.14-1.72,2.14-1.72,2.14l0,12.34
					l17.6,17.15L71.67,1.13L60.68,2.01z"/>
			</g>
		</g>
		<g id="_x3C_Mirror_Repeat_x3E__00000037672365846880046940000006819349100540169857_">
			<g>
				<defs>
					<rect id="SVGID_00000161590657342548313710000003091237498939352745_" x="71.82" width="17.14" height="59.75"/>
				</defs>
				<clipPath id="SVGID_00000005983431059817824750000005174180350385367445_">
					<use xlink:href="#SVGID_00000161590657342548313710000003091237498939352745_"  style="overflow:visible;"/>
				</clipPath>
				
					<path style="clip-path:url(#SVGID_00000005983431059817824750000005174180350385367445_);stroke:#000000;stroke-width:0.25;stroke-miterlimit:10;" d="
					M83.45,2.01v22.45c0,0.42,0.27,0.81,0.69,0.91c0.59,0.14,1.57,0.69,2.96,2.43c1.72,2.14,1.72,2.14,1.72,2.14l0,12.34
					l-17.6,17.15l0.45-58.29L83.45,2.01z"/>
			</g>
		</g>
	</g>
	<polygon class="st2" points="60.68,2.52 60.68,24.47 64.09,24.47 64.09,2.01 	"/>
	<rect x="66.08" y="2.01" class="st2" width="1.62" height="22.46"/>
	<polygon class="st2" points="58.38,26.79 56.88,28.79 61.79,28.79 63.25,26.79 	"/>
	<rect x="55.27" y="30.2" class="st2" width="3.72" height="11.82"/>
	<rect x="61.28" y="30.2" class="st2" width="17.43" height="11.82"/>
	<rect x="85.12" y="30.2" class="st2" width="2.4" height="11.82"/>
	<polygon class="st2" points="62.39,43.22 56.37,43.22 67.38,53.88 68.91,53.88 	"/>
	<g>
		<g id="_x3C_Mirror_Repeat_x3E__00000011009514528311825170000009786403007318450349_">
			<g>
				<defs>
					<rect id="SVGID_00000145743378439042799530000014438719898268938912_" x="68.54" y="55.03" width="3.28" height="3.31"/>
				</defs>
				<clipPath id="SVGID_00000181050796981223373410000010201405178187641263_">
					<use xlink:href="#SVGID_00000145743378439042799530000014438719898268938912_"  style="overflow:visible;"/>
				</clipPath>
				<polygon style="clip-path:url(#SVGID_00000181050796981223373410000010201405178187641263_);fill:#FFFFFF;" points="
					68.54,55.03 71.82,58.35 71.82,55.03 				"/>
			</g>
		</g>
		<g id="_x3C_Mirror_Repeat_x3E__00000024718117518994939190000004731924981373644461_">
			<g>
				<defs>
					<rect id="SVGID_00000008849707483512989210000011613357038961547948_" x="71.82" y="55.03" width="3.28" height="3.31"/>
				</defs>
				<clipPath id="SVGID_00000001629077227954332860000005443499348888510595_">
					<use xlink:href="#SVGID_00000008849707483512989210000011613357038961547948_"  style="overflow:visible;"/>
				</clipPath>
				<polygon style="clip-path:url(#SVGID_00000001629077227954332860000005443499348888510595_);fill:#FFFFFF;" points="75.1,55.03 
					71.82,58.35 71.82,55.03 				"/>
			</g>
		</g>
	</g>
</g>
<g id="Bars">
	<rect x="71.76" y="59.75" class="st5" width="8.57" height="53.41"/>
	<line class="st6" x1="71.76" y1="58.46" x2="71.76" y2="68.57"/>
	<rect x="58.05" y="79.69" class="st5" width="8.57" height="33.47"/>
	<rect x="85.43" y="75.71" class="st5" width="8.57" height="37.58"/>
	<rect x="44.33" y="75.71" class="st5" width="8.57" height="37.45"/>
	<rect x="30.62" y="90.81" class="st5" width="8.57" height="22.35"/>
	<rect x="99.09" y="68.47" class="st5" width="8.57" height="44.82"/>
</g>
<g id="grid">
	<g id="Set_1">
		<rect x="111.17" y="53.33" class="st7" width="12.02" height="10.02"/>
		<rect x="111.17" y="63.35" class="st7" width="12.02" height="10.02"/>
		<rect x="111.17" y="73.37" class="st7" width="12.02" height="10.02"/>
		<rect x="111.17" y="83.38" class="st7" width="12.02" height="10.02"/>
		<rect x="111.17" y="93.4" class="st7" width="12.02" height="10.02"/>
		<rect x="99.15" y="53.33" class="st7" width="12.02" height="10.02"/>
		<rect x="99.15" y="63.35" class="st7" width="12.02" height="10.02"/>
		<rect x="99.15" y="73.37" class="st7" width="12.02" height="10.02"/>
		<rect x="99.15" y="83.38" class="st7" width="12.02" height="10.02"/>
		<rect x="99.15" y="93.4" class="st7" width="12.02" height="10.02"/>
		<rect x="87.13" y="53.33" class="st7" width="12.02" height="10.02"/>
		<rect x="87.13" y="63.35" class="st7" width="12.02" height="10.02"/>
		<rect x="87.13" y="73.37" class="st7" width="12.02" height="10.02"/>
		<rect x="87.13" y="83.38" class="st7" width="12.02" height="10.02"/>
		<rect x="87.13" y="93.4" class="st7" width="12.02" height="10.02"/>
	</g>
	<g id="Set_2">
		<rect x="75.1" y="63.35" class="st7" width="12.02" height="10.02"/>
		<rect x="75.1" y="73.37" class="st7" width="12.02" height="10.02"/>
		<rect x="75.1" y="83.38" class="st7" width="12.02" height="10.02"/>
		<rect x="75.1" y="93.4" class="st7" width="12.02" height="10.02"/>
		<rect x="75.1" y="103.42" class="st7" width="12.02" height="10.02"/>
		<rect x="63.08" y="63.35" class="st7" width="12.02" height="10.02"/>
		<rect x="63.08" y="73.37" class="st7" width="12.02" height="10.02"/>
		<rect x="63.08" y="83.38" class="st7" width="12.02" height="10.02"/>
		<rect x="63.08" y="93.4" class="st7" width="12.02" height="10.02"/>
		<rect x="63.08" y="103.42" class="st7" width="12.02" height="10.02"/>
		<rect x="51.06" y="63.35" class="st7" width="12.02" height="10.02"/>
		<rect x="51.06" y="73.37" class="st7" width="12.02" height="10.02"/>
		<rect x="51.06" y="83.38" class="st7" width="12.02" height="10.02"/>
		<rect x="51.06" y="93.4" class="st7" width="12.02" height="10.02"/>
		<rect x="51.06" y="103.42" class="st7" width="12.02" height="10.02"/>
	</g>
	<g id="Set_3">
		<rect x="39.04" y="53.33" class="st7" width="12.02" height="10.02"/>
		<rect x="39.04" y="63.35" class="st7" width="12.02" height="10.02"/>
		<rect x="39.04" y="73.37" class="st7" width="12.02" height="10.02"/>
		<rect x="39.04" y="83.38" class="st7" width="12.02" height="10.02"/>
		<rect x="39.04" y="93.4" class="st7" width="12.02" height="10.02"/>
		<rect x="27.02" y="53.33" class="st7" width="12.02" height="10.02"/>
		<rect x="27.02" y="63.35" class="st7" width="12.02" height="10.02"/>
		<rect x="27.02" y="73.37" class="st7" width="12.02" height="10.02"/>
		<rect x="27.02" y="83.38" class="st7" width="12.02" height="10.02"/>
		<rect x="27.02" y="93.4" class="st7" width="12.02" height="10.02"/>
		<rect x="15" y="53.33" class="st7" width="12.02" height="10.02"/>
		<rect x="15" y="63.35" class="st7" width="12.02" height="10.02"/>
		<rect x="15" y="73.37" class="st7" width="12.02" height="10.02"/>
		<rect x="15" y="83.38" class="st7" width="12.02" height="10.02"/>
		<rect x="15" y="93.4" class="st7" width="12.02" height="10.02"/>
	</g>
</g>
<g id="circle">
	<g>
		<path d="M71.05,5.14c36.28,0,65.8,29.52,65.8,65.8s-29.52,65.8-65.8,65.8s-65.8-29.52-65.8-65.8S34.77,5.14,71.05,5.14
			 M71.05,0.14c-39.1,0-70.8,31.7-70.8,70.8s31.7,70.8,70.8,70.8s70.8-31.7,70.8-70.8S110.15,0.14,71.05,0.14L71.05,0.14z"/>
	</g>
	<g>
	</g>
	<g>
	</g>
	<g>
	</g>
	<g>
	</g>
	<g>
	</g>
	<g>
	</g>
	<g>
	</g>
	<g>
	</g>
	<g>
	</g>
	<g>
	</g>
	<g>
	</g>
	<g>
	</g>
	<g>
	</g>
	<g>
	</g>
	<g>
	</g>
</g>
</svg>
